<svg xmlns="http://www.w3.org/2000/svg" viewBox="0 0 1000 776.56" role="img" aria-labelledby="logo-title">
  <title id="logo-title">L'angolo di Nadia</title>
  <g id="testo" fill="currentColor" fill-rule="evenodd">
    <path d="M0.00,775.98C0.00,775.46 55.82,775.39 500.00,775.39C944.18,775.39 1000.00,775.46 1000.00,775.98C1000.00,776.50 944.18,776.56 500.00,776.56C55.82,776.56 0.00,776.50 0.00,775.98Z M443.60,703.88C438.26,702.94 436.93,702.58 432.81,700.97C423.83,697.47 416.41,690.32 413.67,682.53C412.13,678.15 411.71,666.86 412.88,661.52C413.59,658.30 414.20,656.42 414.85,655.47C415.21,654.93 415.63,653.99 415.78,653.39C416.20,651.65 419.51,646.82 422.21,644.00C425.93,640.11 433.72,634.57 437.07,633.42C439.31,632.65 439.54,631.71 438.62,627.14C436.99,619.00 439.04,609.03 443.79,602.08C449.45,593.78 457.52,589.42 468.35,588.80C480.83,588.08 492.22,591.92 499.16,599.18C503.80,604.03 506.68,609.33 508.32,616.02C509.10,619.22 509.14,620.60 509.35,655.66L509.57,691.99L510.50,695.11C511.44,698.27 512.05,699.52 513.40,701.05C513.82,701.53 514.06,702.19 513.93,702.53C513.72,703.06 512.41,703.13 503.04,703.03L492.38,702.93L492.28,688.23C492.20,676.05 492.08,673.45 491.62,673.06C491.16,672.68 491.02,672.84 490.81,673.96C490.67,674.70 490.13,675.68 489.61,676.13C489.10,676.58 488.67,677.34 488.67,677.83C488.66,679.01 487.57,682.08 486.90,682.83C486.60,683.16 485.80,684.47 485.12,685.76C484.44,687.04 483.77,688.17 483.64,688.28C483.51,688.39 482.63,689.49 481.69,690.72C477.69,695.99 471.29,700.50 465.04,702.46C457.60,704.80 451.22,705.22 443.60,703.88Z M567.19,704.11C566.22,703.79 564.53,703.36 563.42,703.15C561.32,702.76 555.73,700.16 551.76,697.72C548.69,695.85 542.07,689.22 539.75,685.70C537.52,682.32 535.12,677.70 534.51,675.59C534.26,674.73 533.79,673.23 533.45,672.27C531.54,666.71 531.45,665.90 531.45,654.69C531.45,643.87 531.57,642.55 533.21,635.94C534.84,629.35 538.75,620.92 542.48,615.95C550.89,604.75 564.56,595.91 578.91,592.39C580.30,592.05 581.88,591.60 582.42,591.39C584.09,590.76 592.26,589.46 594.65,589.46C597.40,589.45 597.27,590.06 594.43,590.44C593.31,590.59 591.65,591.04 590.74,591.45C589.84,591.86 588.85,592.19 588.54,592.19C586.26,592.19 575.55,596.81 572.56,599.09C571.76,599.70 570.06,600.97 568.77,601.92C564.55,605.04 558.89,611.90 556.33,617.02C553.36,622.94 551.56,627.35 551.56,628.71C551.56,629.28 551.22,630.56 550.79,631.57C549.33,635.04 548.44,643.89 548.44,654.78C548.45,661.73 548.61,665.34 548.99,666.99C549.28,668.28 549.64,670.19 549.79,671.23C549.94,672.27 550.40,673.68 550.81,674.36C551.22,675.03 551.56,676.01 551.56,676.54C551.56,678.37 556.20,686.86 559.19,690.49C561.68,693.51 564.94,696.67 566.19,697.27C566.42,697.37 567.39,697.93 568.36,698.50C569.33,699.07 571.68,699.91 573.58,700.37C585.19,703.18 596.33,696.28 605.24,680.77C606.44,678.67 607.42,676.85 607.42,676.71C607.42,676.57 608.12,675.01 608.96,673.24C609.81,671.47 610.63,669.51 610.77,668.90C610.91,668.28 611.29,667.36 611.60,666.86C612.16,665.97 612.77,664.07 613.86,659.84C614.15,658.70 614.67,657.34 615.01,656.83C615.35,656.31 615.62,655.22 615.62,654.40C615.62,653.59 615.98,652.26 616.41,651.46C616.85,650.63 617.19,649.26 617.19,648.27C617.19,646.02 617.86,644.12 618.38,644.94C618.98,645.89 618.78,648.53 617.96,650.34C617.54,651.27 617.19,652.63 617.19,653.36C617.19,654.08 616.94,655.33 616.63,656.14C616.32,656.95 615.88,658.56 615.65,659.71C615.42,660.85 614.96,662.17 614.64,662.62C614.32,663.08 614.06,663.82 614.06,664.26C614.06,665.24 612.77,669.16 611.74,671.29C611.32,672.15 610.59,673.91 610.10,675.20C609.61,676.48 609.05,677.76 608.85,678.04C608.64,678.31 607.93,679.63 607.25,680.97C603.74,687.92 597.88,694.77 592.00,698.82C589.32,700.67 585.02,702.55 581.25,703.53C576.96,704.64 569.73,704.94 567.19,704.11Z M735.35,704.42C734.71,704.34 732.42,703.92 730.27,703.49C721.22,701.66 715.04,698.60 709.44,693.20C706.83,690.68 703.12,685.54 703.12,684.45C703.12,684.21 702.79,683.25 702.38,682.33C701.05,679.35 700.30,674.06 700.50,669.13C700.60,666.66 700.89,663.86 701.15,662.89C704.61,649.86 709.77,642.95 721.37,635.78C723.36,634.56 725.64,633.33 726.45,633.04C727.89,632.53 727.93,632.48 727.86,630.70C727.83,629.69 727.59,628.61 727.32,628.30C727.02,627.93 726.77,625.69 726.65,622.18C726.43,616.25 726.35,616.70 729.02,608.79C730.40,604.72 732.71,601.21 736.49,597.45C742.34,591.65 748.21,589.24 757.62,588.81C762.51,588.58 768.81,589.24 773.00,590.41C775.42,591.09 780.78,593.58 782.87,595.00C789.10,599.23 793.71,605.43 795.88,612.50C798.39,620.67 798.20,617.39 798.43,657.81C798.64,694.18 798.66,694.76 799.46,696.64C799.92,697.69 800.92,699.35 801.71,700.31C803.97,703.11 803.92,703.12 791.96,703.12C781.87,703.12 781.66,703.11 781.22,702.30C780.91,701.71 780.82,697.23 780.91,686.77C781.03,674.00 780.97,672.07 780.47,672.07C780.13,672.07 779.81,672.56 779.69,673.24C779.57,673.93 779.24,674.41 778.90,674.41C777.99,674.41 777.97,672.66 778.87,671.45C779.32,670.84 779.69,669.98 779.69,669.53C779.69,669.09 779.95,668.09 780.27,667.32C781.12,665.29 781.15,629.25 780.31,628.55C779.23,627.65 771.76,626.59 766.41,626.58C759.49,626.56 752.14,627.72 745.66,629.83C737.06,632.64 730.24,637.01 725.14,642.99C723.51,644.90 720.32,649.97 720.31,650.65C720.31,650.83 720.03,651.50 719.69,652.15C719.13,653.20 718.69,654.57 717.52,658.98C717.32,659.74 717.16,663.96 717.17,668.36C717.17,675.21 717.29,676.82 717.99,679.49C719.65,685.84 720.49,687.73 723.20,691.16C727.47,696.58 733.58,700.22 740.41,701.43C743.67,702.01 744.71,702.04 747.87,701.64C752.22,701.09 755.63,700.00 758.64,698.19C759.85,697.47 761.02,696.88 761.24,696.88C762.36,696.88 769.18,689.91 771.37,686.52C772.35,685.02 773.43,683.37 773.78,682.86C774.13,682.34 774.53,681.73 774.68,681.49C775.00,680.96 776.38,677.80 776.70,676.86C777.00,675.96 778.12,675.97 778.12,676.87C778.12,677.94 774.96,684.18 772.64,687.70C769.63,692.25 764.22,697.43 760.12,699.68C756.35,701.75 754.11,702.65 751.56,703.12C750.60,703.30 748.61,703.72 747.14,704.07C744.69,704.64 738.55,704.82 735.35,704.42Z M267.84,702.80C266.67,702.58 267.14,701.81 270.34,698.70C273.52,695.61 275.54,692.86 277.28,689.26C277.80,688.18 278.53,686.68 278.91,685.92C279.28,685.16 279.72,683.75 279.87,682.79C280.02,681.84 280.39,680.19 280.70,679.13C281.16,677.50 281.25,667.66 281.25,616.33L281.25,555.45L276.86,549.36C274.44,546.01 272.02,542.68 271.48,541.97C268.67,538.24 267.92,537.01 268.12,536.50C268.31,536.01 269.94,535.94 278.98,536.03L289.62,536.13L291.19,538.32C292.82,540.58 296.48,545.48 301.34,551.89C305.68,557.62 307.32,559.84 308.46,561.52C309.05,562.38 309.71,563.26 309.94,563.48C310.17,563.69 311.46,565.36 312.81,567.19C319.34,576.00 328.22,587.94 329.81,590.04C334.46,596.15 341.27,605.22 341.80,605.99C342.12,606.47 345.47,610.98 349.24,616.03C353.01,621.07 358.28,628.16 360.96,631.79C363.63,635.41 367.17,640.16 368.82,642.33C373.01,647.87 374.69,650.12 379.82,657.03C382.29,660.36 384.59,663.44 384.92,663.87C387.78,667.58 388.68,668.82 389.83,670.61C391.23,672.79 391.57,673.02 391.95,672.04C392.08,671.70 392.19,646.96 392.19,617.06L392.19,562.70L391.20,558.59C390.65,556.34 389.88,553.61 389.47,552.54C387.75,547.99 384.18,542.75 380.71,539.70C378.04,537.36 377.63,536.58 378.81,536.05C379.18,535.88 385.73,535.83 393.35,535.94C405.86,536.11 407.23,536.20 407.34,536.78C407.41,537.14 407.18,537.66 406.82,537.95C404.23,540.06 402.00,542.33 400.57,544.34C398.53,547.19 395.31,553.49 395.31,554.62C395.31,555.07 394.96,556.33 394.53,557.42C393.76,559.37 393.75,560.39 393.70,614.57C393.66,644.90 393.53,677.11 393.40,686.13L393.16,702.54L391.78,702.66C390.30,702.78 389.78,702.27 385.82,696.78C385.00,695.65 383.15,693.14 381.71,691.21C380.26,689.28 377.94,686.13 376.55,684.22C372.78,679.04 371.48,677.28 369.41,674.55C366.39,670.56 362.11,664.76 361.09,663.28C359.60,661.10 356.89,657.45 350.81,649.41C349.72,647.97 342.60,638.35 339.25,633.79C338.46,632.71 336.16,629.64 334.13,626.95C332.10,624.27 329.98,621.37 329.42,620.51C328.85,619.65 327.67,618.03 326.79,616.92C325.91,615.80 324.66,614.13 324.00,613.21C321.45,609.62 319.29,606.68 315.99,602.31C311.61,596.51 310.18,594.57 308.98,592.81C308.23,591.70 306.65,589.53 305.47,588.00C304.29,586.46 300.51,581.40 297.07,576.76C293.63,572.11 290.12,567.37 289.26,566.22C288.40,565.07 287.08,563.23 286.33,562.13C284.02,558.77 283.74,558.46 283.27,558.75C282.92,558.96 282.81,573.98 282.81,619.46L282.81,679.89L284.01,683.21C286.09,688.95 286.21,689.24 287.24,690.83C289.95,695.01 292.06,697.64 294.15,699.41C295.61,700.65 296.42,701.63 296.37,702.09C296.29,702.78 295.63,702.82 282.39,702.87C274.75,702.90 268.20,702.87 267.84,702.80Z M620.57,702.86C620.43,702.72 620.31,689.62 620.31,673.75C620.31,648.99 620.23,644.70 619.73,643.49C618.96,641.66 618.96,636.31 619.74,632.46C620.25,629.89 620.32,623.68 620.22,586.13C620.12,544.61 620.09,542.70 619.38,541.08C618.90,539.99 618.10,539.06 617.11,538.43C614.49,536.77 615.47,535.83 620.90,534.77C622.19,534.52 624.12,534.07 625.20,533.77C628.05,532.96 635.69,531.25 636.43,531.25C636.78,531.25 637.21,531.47 637.38,531.74C637.55,532.01 637.79,568.35 637.91,612.50C638.14,700.75 638.01,696.34 640.46,699.43C642.27,701.72 642.32,701.81 642.07,702.49C641.85,703.06 640.68,703.12 631.33,703.12C625.56,703.12 620.72,703.01 620.57,702.86Z M659.53,702.56C659.41,702.26 660.01,701.07 660.86,699.93C661.94,698.47 662.62,696.98 663.13,694.92C663.83,692.14 663.87,689.71 663.87,646.48C663.87,601.94 663.85,600.93 663.09,598.86C662.52,597.32 661.95,596.53 661.04,595.99C660.34,595.57 659.77,594.99 659.77,594.70C659.77,593.89 661.40,592.98 663.53,592.60C664.58,592.41 666.66,591.91 668.16,591.48C673.05,590.10 680.10,588.60 680.68,588.82C681.17,589.01 681.25,595.72 681.25,639.22C681.25,687.81 681.27,689.52 682.03,693.36C682.46,695.54 682.81,697.38 682.81,697.44C682.81,697.51 683.60,698.58 684.57,699.82C685.92,701.56 686.22,702.20 685.89,702.60C685.22,703.40 659.83,703.37 659.53,702.56Z M464.61,700.42C466.71,699.79 468.72,699.02 469.08,698.70C469.44,698.38 470.52,697.76 471.49,697.30C472.46,696.85 474.06,695.82 475.04,695.01C477.17,693.25 481.81,687.98 483.37,685.55C483.99,684.58 484.82,683.31 485.22,682.73C485.61,682.15 485.94,681.43 485.94,681.13C485.94,680.83 486.29,680.27 486.72,679.88C487.15,679.49 487.50,678.90 487.50,678.55C487.50,678.21 487.85,677.40 488.28,676.76C488.71,676.11 489.06,675.11 489.06,674.53C489.06,673.92 489.46,673.09 490.00,672.57C490.63,671.98 491.01,671.10 491.14,669.92C491.24,668.96 491.53,667.37 491.77,666.40C492.34,664.13 492.18,629.13 491.60,628.56C490.82,627.78 485.22,626.89 479.88,626.69C475.61,626.52 473.02,626.66 468.02,627.32C464.50,627.78 461.14,628.40 460.54,628.71C459.94,629.02 458.65,629.46 457.66,629.68C456.68,629.90 454.26,630.77 452.29,631.62C443.38,635.46 437.13,640.84 432.95,648.24C431.00,651.70 430.29,653.50 429.71,656.45C429.45,657.73 428.98,659.51 428.66,660.38C427.85,662.56 428.10,673.10 429.05,677.73C431.21,688.20 434.84,693.59 442.85,698.24C445.19,699.61 449.76,701.30 452.15,701.70C454.96,702.16 460.82,701.56 464.61,700.42Z M734.83,629.72C738.79,628.33 742.21,627.43 746.09,626.75C747.71,626.47 750.61,625.94 752.54,625.57C755.21,625.06 758.22,624.89 765.04,624.88C773.16,624.86 774.28,624.94 776.71,625.70C780.68,626.94 781.01,626.66 780.74,622.32C780.47,617.95 779.47,611.56 778.73,609.57C778.42,608.71 778.15,607.70 778.14,607.32C778.13,606.95 777.77,605.98 777.34,605.18C776.91,604.38 776.56,603.53 776.56,603.30C776.56,602.58 773.04,597.58 771.34,595.91C767.92,592.53 762.92,590.62 757.44,590.62C753.69,590.62 747.80,592.12 744.20,593.99C741.41,595.43 737.44,598.87 735.32,601.67C733.03,604.69 730.32,610.38 729.51,613.84C728.15,619.72 729.27,630.86 731.23,630.86C731.42,630.86 733.04,630.35 734.83,629.72Z M445.93,629.67C448.93,628.64 453.48,627.50 458.59,626.49C470.05,624.24 483.44,624.04 489.20,626.03C491.56,626.85 492.19,626.29 492.19,623.36C492.19,622.04 492.02,619.89 491.82,618.59C491.62,617.28 491.25,614.82 491.00,613.11C490.75,611.41 490.22,609.30 489.81,608.42C489.41,607.55 488.90,606.11 488.68,605.23C488.46,604.35 487.84,602.98 487.31,602.19C486.77,601.40 486.09,600.28 485.78,599.70C485.03,598.27 481.44,594.66 479.64,593.52C477.19,591.98 473.48,590.91 469.92,590.72C458.96,590.14 448.30,596.77 443.08,607.42C441.06,611.54 440.46,614.66 440.46,620.90C440.46,626.07 440.56,626.98 441.30,628.61C442.27,630.76 442.59,630.83 445.93,629.67Z M669.14,568.47C667.37,567.80 664.39,565.39 663.55,563.94C660.25,558.23 661.75,551.61 667.15,548.11C668.84,547.01 669.37,546.88 671.87,546.88C675.06,546.88 676.44,547.39 678.92,549.52C681.16,551.43 682.53,554.52 682.55,557.67C682.57,559.60 682.32,560.57 681.34,562.57C679.93,565.43 679.10,566.30 676.37,567.73C674.86,568.52 673.89,568.74 672.07,568.72C670.78,568.70 669.46,568.59 669.14,568.47Z M494.92,496.87C490.78,496.46 484.61,494.29 480.11,491.65C474.29,488.24 468.22,482.13 464.49,475.93C462.47,472.55 459.38,465.40 459.38,464.07C459.38,463.62 459.04,462.25 458.63,461.02C457.76,458.45 456.80,447.45 457.19,444.55C457.32,443.54 457.59,440.62 457.79,438.06C457.99,435.49 458.42,432.74 458.76,431.95C459.10,431.15 459.38,429.90 459.38,429.17C459.38,428.44 460.00,426.19 460.77,424.17C461.53,422.16 462.30,420.07 462.48,419.53C462.98,418.00 466.41,411.73 467.93,409.57C475.66,398.62 487.04,390.70 501.76,386.03C511.09,383.07 520.22,381.42 526.17,381.63C527.64,381.68 527.78,381.75 527.05,382.04C526.56,382.24 524.74,382.58 522.99,382.80C519.63,383.22 513.96,384.55 512.76,385.20C512.37,385.42 510.96,385.93 509.64,386.34C507.51,387.00 502.81,389.30 498.86,391.60C498.13,392.03 496.61,393.20 495.49,394.19C494.37,395.19 493.21,396.16 492.92,396.34C492.44,396.64 490.91,398.28 487.29,402.37C484.93,405.04 479.69,414.17 479.69,415.61C479.69,415.86 479.35,416.89 478.95,417.90C477.67,421.06 476.56,424.81 476.56,426.00C476.56,426.63 476.21,428.58 475.80,430.32C474.14,437.24 473.99,456.37 475.56,461.00C475.88,461.93 476.25,463.49 476.39,464.45C476.96,468.39 481.56,478.41 484.53,482.21C486.01,484.10 490.49,488.56 492.04,489.71C493.44,490.73 497.75,492.58 498.74,492.58C499.13,492.58 499.66,492.79 499.91,493.04C500.70,493.83 506.61,493.93 509.22,493.19C517.50,490.87 522.65,486.62 529.63,476.37C531.58,473.50 536.65,463.32 537.30,460.94C537.74,459.33 539.44,454.96 540.05,453.85C540.37,453.28 540.63,452.13 540.63,451.31C540.64,450.48 540.99,449.04 541.41,448.10C541.84,447.17 542.19,446.17 542.19,445.88C542.19,445.60 542.38,444.87 542.62,444.26L543.05,443.16L543.42,444.12C543.65,444.72 543.64,445.66 543.39,446.66C542.18,451.64 541.79,452.88 541.24,453.49C540.88,453.88 540.62,454.86 540.62,455.81C540.62,456.86 540.06,458.79 539.06,461.13C538.20,463.15 537.50,464.97 537.50,465.17C537.50,465.37 536.80,466.96 535.94,468.70C535.08,470.44 534.38,471.96 534.38,472.08C534.38,472.20 533.62,473.57 532.70,475.11C524.80,488.43 515.34,495.42 503.32,496.85C499.52,497.30 499.29,497.30 494.92,496.87Z M557.14,495.80C547.68,495.69 547.27,495.66 546.86,494.89C546.56,494.33 546.46,485.60 546.51,465.59C546.56,449.92 546.49,436.99 546.36,436.85C546.12,436.61 545.69,437.53 545.06,439.65C544.54,441.37 543.96,440.91 543.83,438.68C543.75,437.35 543.96,436.15 544.51,434.92C544.95,433.92 545.31,432.45 545.31,431.65C545.31,430.86 545.57,428.49 545.89,426.39C546.63,421.45 546.80,385.70 546.09,384.38C545.78,383.79 545.77,383.40 546.06,383.05C546.33,382.72 546.48,374.89 546.49,359.35C546.53,332.16 546.60,332.71 542.87,330.81C540.91,329.81 541.03,328.84 543.17,328.38C544.03,328.19 545.43,327.81 546.29,327.53C547.15,327.24 548.47,326.90 549.22,326.76C552.37,326.18 559.47,324.55 560.39,324.20C561.95,323.61 563.22,323.76 563.66,324.58C563.93,325.10 564.06,351.02 564.06,405.60L564.06,485.87L564.92,488.15C565.82,490.55 567.27,493.12 567.95,493.54C568.58,493.93 568.43,495.59 567.74,495.86C567.40,495.99 567.09,496.05 567.06,496.00C567.02,495.95 562.56,495.86 557.14,495.80Z M598.38,495.80C587.34,495.70 585.99,495.62 585.77,495.05C585.63,494.68 585.83,494.06 586.24,493.59C588.40,491.11 589.09,489.54 589.66,485.74C590.14,482.54 590.23,474.85 590.23,439.10C590.22,396.62 590.21,396.05 589.08,389.97C589.07,389.93 588.27,389.32 587.30,388.63C585.29,387.18 585.09,386.44 586.62,386.12C587.21,385.99 588.27,385.64 588.97,385.33C589.67,385.02 590.99,384.66 591.90,384.53C592.81,384.39 596.24,383.60 599.52,382.77C606.25,381.05 607.04,380.97 607.27,381.93C607.37,382.31 607.48,406.00 607.53,434.57L607.62,486.52L608.50,488.08C608.98,488.94 609.38,489.85 609.38,490.10C609.38,490.36 609.99,491.37 610.74,492.36C612.24,494.32 612.48,495.53 611.43,495.76C611.05,495.83 605.18,495.85 598.38,495.80Z M597.27,361.09C596.73,361.00 595.73,360.83 595.05,360.72C592.09,360.24 587.50,354.09 587.50,350.59C587.50,348.80 589.56,343.90 590.94,342.43C592.42,340.84 595.85,339.40 598.23,339.35C600.74,339.31 603.73,340.60 605.57,342.50C607.43,344.44 609.12,348.74 608.87,350.91C608.41,354.85 606.43,358.12 603.42,359.88C601.74,360.87 599.07,361.39 597.27,361.09Z M604.69,286.48C597.51,284.61 596.77,284.28 592.63,281.17C589.41,278.74 587.69,277.25 587.30,276.56C587.09,276.18 586.26,275.11 585.47,274.17C584.67,273.23 583.59,271.94 583.07,271.30C582.22,270.26 582.03,270.19 581.20,270.63C579.49,271.54 578.53,272.14 577.83,272.71C577.46,273.03 576.71,273.50 576.17,273.76C575.63,274.01 574.49,274.66 573.63,275.19C571.93,276.23 567.52,278.43 565.04,279.46C564.18,279.82 563.16,280.29 562.76,280.51C560.65,281.68 555.14,282.97 549.59,283.60C546.75,283.92 545.54,283.86 541.99,283.20C534.34,281.80 530.31,278.25 529.24,271.99C528.48,267.55 529.19,263.92 531.45,260.75C534.40,256.63 539.71,252.82 546.48,249.99C549.96,248.54 554.65,247.27 556.52,247.27C558.15,247.27 557.92,247.85 556.16,248.19C554.48,248.52 549.12,251.24 546.76,252.96C544.56,254.57 542.80,256.94 541.50,260.01C540.70,261.91 540.59,262.68 540.73,265.77C541.17,276.04 547.16,281.15 557.03,279.66C563.53,278.68 571.66,275.04 580.85,268.99C582.03,268.21 583.18,267.58 583.42,267.58C583.66,267.58 584.26,267.14 584.77,266.60C585.27,266.06 586.01,265.62 586.41,265.62C586.81,265.62 587.23,265.38 587.35,265.07C587.46,264.77 588.07,264.31 588.70,264.05C589.33,263.79 589.84,263.46 589.84,263.31C589.84,263.16 590.42,262.74 591.11,262.37C592.46,261.67 593.19,261.20 596.53,258.90C599.68,256.72 600.05,256.47 607.23,251.75C619.49,243.68 620.81,242.87 624.43,241.15C626.41,240.21 628.80,239.29 629.74,239.11C630.68,238.92 632.26,238.54 633.27,238.26C634.84,237.82 635.63,237.85 639.13,238.47C646.14,239.73 648.96,241.73 651.80,247.47L653.30,250.50L653.25,256.01C653.20,261.41 653.17,261.59 651.80,264.81C650.01,269.03 648.90,270.64 645.36,274.13C642.53,276.93 636.56,281.24 635.50,281.26C635.21,281.26 633.82,281.89 632.42,282.64C629.65,284.14 623.99,285.94 622.05,285.94C621.38,285.94 619.96,286.21 618.91,286.54C617.86,286.88 615.06,287.22 612.70,287.30C609.06,287.43 607.83,287.30 604.69,286.48Z M621.68,284.83C629.92,282.02 633.98,278.60 637.34,271.63C638.62,268.98 638.91,267.83 639.47,263.32C640.60,254.15 639.22,246.96 635.82,244.37C633.08,242.28 629.50,241.58 627.32,242.71C626.77,243.00 625.47,243.52 624.44,243.88C623.40,244.23 620.63,245.62 618.28,246.97C612.91,250.05 613.11,249.92 610.55,251.60C609.37,252.37 607.70,253.42 606.84,253.92C605.98,254.43 603.78,255.82 601.95,257.01C600.13,258.20 598.35,259.35 598.01,259.57C597.66,259.78 596.61,260.48 595.66,261.12C593.31,262.72 592.93,262.97 591.45,263.87C590.75,264.30 589.28,265.31 588.18,266.11C587.08,266.92 586.04,267.58 585.87,267.58C585.43,267.58 583.98,269.05 583.98,269.50C583.98,270.08 589.76,277.05 591.33,278.36C598.21,284.10 603.29,285.78 614.06,285.86C617.98,285.89 618.95,285.76 621.68,284.83Z M560.84,245.62C562.01,244.36 561.96,244.22 560.25,243.93C557.26,243.43 549.00,240.52 545.75,238.81C539.97,235.78 538.45,234.75 533.86,230.70C527.67,225.24 522.55,217.00 520.24,208.79C518.83,203.74 517.57,195.15 517.74,191.60C517.91,187.87 519.19,178.76 519.62,178.23C519.83,177.97 520.15,176.74 520.32,175.50C520.49,174.26 521.11,172.01 521.69,170.51C522.26,169.00 523.01,166.98 523.34,166.02C523.67,165.05 524.15,163.99 524.39,163.67C524.63,163.35 525.24,162.29 525.75,161.33C528.44,156.17 533.48,149.87 538.71,145.12C545.89,138.60 556.22,133.28 565.23,131.46C566.63,131.17 568.56,130.64 569.53,130.28C571.05,129.71 572.53,129.64 580.27,129.78C586.05,129.88 589.66,130.10 590.37,130.40C590.98,130.66 592.57,131.12 593.89,131.42C598.40,132.46 600.95,133.17 602.14,133.73C608.15,136.59 612.69,138.99 614.65,140.34C619.01,143.37 625.84,150.68 628.19,154.85C629.75,157.62 632.81,164.02 632.81,164.51C632.81,164.80 633.14,166.27 633.55,167.77C635.17,173.72 635.57,175.95 635.79,179.98C636.10,185.75 635.06,194.12 633.40,199.27C633.08,200.27 632.81,201.42 632.81,201.83C632.81,202.24 632.11,204.15 631.26,206.07C630.40,208.00 629.70,209.80 629.69,210.08C629.69,210.37 629.25,211.18 628.71,211.88C628.17,212.58 627.73,213.33 627.73,213.55C627.73,215.19 619.22,225.89 614.80,229.80C611.48,232.74 605.16,237.11 602.15,238.55C601.07,239.07 599.93,239.63 599.61,239.82C598.10,240.66 594.48,241.84 593.76,241.73C593.21,241.64 593.93,241.18 595.98,240.30C599.62,238.74 599.35,238.90 602.12,236.78C605.61,234.13 609.70,230.12 611.12,227.95C612.95,225.15 615.62,220.33 615.64,219.79C615.65,219.54 615.99,218.63 616.41,217.77C616.82,216.91 617.17,215.95 617.19,215.62C617.21,215.30 617.49,214.34 617.83,213.48C619.52,209.09 620.38,195.03 619.37,188.23C619.03,185.95 618.75,183.40 618.76,182.57C618.76,181.74 618.42,179.91 618.01,178.52C617.59,177.12 616.88,174.75 616.43,173.24C615.98,171.74 615.62,170.32 615.62,170.09C615.62,169.87 615.01,168.43 614.26,166.90C613.51,165.38 612.89,163.85 612.89,163.50C612.89,162.85 609.65,156.51 608.78,155.47C608.52,155.15 608.01,154.32 607.67,153.64C605.87,150.10 599.80,143.17 595.90,140.22C592.88,137.93 586.98,134.38 586.21,134.38C585.88,134.38 584.85,134.05 583.92,133.65C581.06,132.43 574.90,131.52 571.33,131.78C567.00,132.10 562.64,132.91 562.05,133.50C561.78,133.76 561.16,133.98 560.67,133.98C560.18,133.98 558.06,134.88 555.96,135.98C548.28,140.01 543.16,145.23 539.20,153.10C538.27,154.94 537.51,156.68 537.51,156.96C537.50,157.24 537.17,158.30 536.77,159.30C536.37,160.31 535.65,162.56 535.17,164.30C534.38,167.20 534.31,168.34 534.32,178.00C534.32,189.20 534.77,193.20 536.75,199.80C538.87,206.90 538.61,206.18 541.53,213.09C542.57,215.57 545.46,220.71 547.22,223.24C547.97,224.32 548.95,225.72 549.40,226.37C552.30,230.53 560.30,237.36 564.84,239.56C571.91,242.99 580.97,244.31 586.86,242.77C589.17,242.17 591.41,242.34 590.69,243.06C590.47,243.28 589.54,243.61 588.61,243.80C582.36,245.07 580.15,245.31 574.80,245.32C571.58,245.33 568.24,245.49 567.38,245.68C566.52,245.87 564.50,246.15 562.89,246.30L559.96,246.57L560.84,245.62Z M308.20,245.05C306.42,244.86 300.31,243.36 299.80,242.98C299.59,242.82 298.95,242.58 298.38,242.44C297.36,242.20 293.09,240.25 291.60,239.34C291.16,239.08 290.11,238.44 289.25,237.93C285.95,235.94 281.23,230.63 279.41,226.87C276.78,221.41 276.76,221.27 276.76,211.52C276.76,201.09 276.81,200.86 280.49,193.22C283.46,187.06 290.73,180.14 299.16,175.44L303.56,172.99L303.31,171.16C303.18,170.16 302.90,168.38 302.71,167.21C302.51,166.05 302.35,163.94 302.36,162.53C302.37,159.23 303.30,152.32 303.85,151.34C304.08,150.92 304.71,149.51 305.25,148.20C307.22,143.33 312.14,137.42 316.53,134.65C320.93,131.87 326.33,130.14 332.03,129.68C336.54,129.32 343.55,129.83 345.55,130.66C346.21,130.93 347.53,131.29 348.48,131.45C350.49,131.78 355.74,134.18 358.45,136.01C363.15,139.18 368.55,145.78 370.33,150.55C370.78,151.74 371.31,152.82 371.51,152.95C371.71,153.07 371.88,153.67 371.88,154.27C371.88,154.88 372.13,156.10 372.45,156.99C373.57,160.18 373.82,167.79 373.82,199.47C373.83,229.73 373.86,231.34 374.62,235.00C375.42,238.90 375.91,240.00 377.64,241.87C378.22,242.49 378.52,243.17 378.38,243.53C378.18,244.06 376.78,244.14 367.44,244.14C358.03,244.14 356.70,244.07 356.49,243.52C356.36,243.18 356.24,236.46 356.24,228.58C356.22,216.90 356.12,214.08 355.66,213.28C354.94,212.01 354.94,210.59 355.66,208.85C356.16,207.67 356.25,204.50 356.25,188.88C356.25,170.83 356.23,170.29 355.47,169.53C354.96,169.02 354.17,168.75 353.17,168.75C352.34,168.75 350.97,168.50 350.11,168.20C345.92,166.73 339.32,167.06 326.76,169.38C315.78,171.41 304.81,178.04 299.06,186.13C296.69,189.47 293.75,196.03 293.75,197.99C293.75,198.59 293.40,200.38 292.98,201.98C291.97,205.76 291.97,210.31 292.97,216.02C293.41,218.49 293.93,221.44 294.13,222.57C294.52,224.77 296.40,228.99 298.01,231.25C301.18,235.74 306.28,239.51 311.87,241.52C313.93,242.26 315.06,242.38 320.12,242.38C326.81,242.38 328.68,241.97 333.79,239.37C337.43,237.53 341.11,234.56 344.14,231.04C347.18,227.50 347.78,226.67 349.18,224.04C349.86,222.76 350.66,221.44 350.95,221.11C351.24,220.78 351.59,219.95 351.74,219.27C351.88,218.58 352.26,217.81 352.56,217.56C352.87,217.30 353.13,216.63 353.13,216.07C353.14,214.77 353.69,213.88 354.25,214.23C354.94,214.65 354.76,216.21 353.91,217.29C353.48,217.84 353.12,218.62 353.12,219.02C353.12,219.42 352.88,220.09 352.59,220.52C352.29,220.94 351.93,221.86 351.78,222.56C351.63,223.25 351.28,223.96 351.01,224.12C350.73,224.28 350.05,225.34 349.48,226.48C347.71,230.04 342.42,236.04 338.55,238.88C335.20,241.34 328.97,243.99 324.84,244.71C321.66,245.26 312.19,245.46 308.20,245.05Z M396.26,244.02C395.38,243.53 395.59,241.89 396.62,241.21C397.79,240.44 398.21,239.49 399.20,235.35C399.98,232.04 400.00,231.01 400.00,187.16C400.00,144.52 399.96,142.25 399.28,140.30C398.49,138.05 398.18,137.64 396.81,136.95C396.22,136.66 395.90,136.16 395.90,135.54C395.90,134.73 396.15,134.52 397.46,134.23C398.32,134.05 399.38,133.75 399.80,133.57C400.50,133.29 406.97,131.76 410.53,131.03C411.28,130.88 412.16,130.63 412.49,130.47C412.82,130.30 413.84,130.00 414.77,129.78C417.70,129.10 417.56,127.64 417.49,157.04C417.44,178.94 417.52,183.16 417.99,183.98C418.71,185.24 418.72,190.88 418.02,199.80C417.42,207.53 417.59,232.58 418.27,235.80C418.80,238.31 419.93,240.56 421.25,241.70C422.34,242.63 422.58,243.66 421.78,243.95C420.89,244.27 396.83,244.34 396.26,244.02Z M492.19,244.14C479.50,243.95 479.49,243.95 479.37,243.09C479.30,242.61 479.61,241.87 480.08,241.41C482.43,239.05 483.32,233.45 482.46,226.37C482.22,224.43 481.85,220.65 481.63,217.97C481.41,215.28 480.97,210.98 480.66,208.40C480.35,205.82 479.99,200.99 479.86,197.66C479.73,194.33 479.37,189.84 479.06,187.70C478.75,185.55 478.33,181.27 478.12,178.19C477.91,175.11 477.58,171.51 477.38,170.18C477.18,168.86 476.90,166.12 476.76,164.10C476.61,162.07 476.31,159.96 476.09,159.41C475.72,158.47 474.74,155.05 473.79,151.37C473.57,150.52 473.14,149.54 472.83,149.20C472.53,148.86 472.07,147.98 471.81,147.24C470.42,143.18 465.19,137.17 461.33,135.19C458.36,133.66 454.23,132.71 451.64,132.95C443.75,133.68 437.16,137.70 432.31,144.75C429.85,148.32 427.57,152.69 426.78,155.32C426.45,156.42 425.92,157.53 425.61,157.79C425.30,158.05 424.92,159.07 424.77,160.05C424.62,161.03 424.26,162.29 423.97,162.85C423.68,163.41 423.44,164.25 423.44,164.73C423.44,165.77 422.65,167.58 422.20,167.58C421.55,167.58 421.87,163.65 422.66,162.11C423.09,161.27 423.44,160.35 423.44,160.07C423.44,159.80 423.71,159.06 424.03,158.44C424.35,157.83 424.73,156.59 424.86,155.71C424.99,154.83 425.32,153.84 425.58,153.52C426.16,152.81 428.12,148.64 428.12,148.12C428.12,147.92 428.40,147.52 428.74,147.24C429.08,146.96 429.71,146.04 430.14,145.19C431.86,141.82 439.58,133.98 441.18,133.98C441.47,133.98 441.90,133.74 442.14,133.45C442.39,133.16 444.48,132.23 446.78,131.40L450.98,129.88L457.62,129.88L464.26,129.88L468.62,131.36C471.02,132.18 473.66,133.31 474.48,133.87C475.30,134.44 476.56,135.30 477.28,135.79C479.41,137.26 483.32,141.09 484.61,142.97C487.26,146.83 488.62,149.07 488.88,150.00C489.03,150.54 489.37,151.24 489.64,151.56C490.27,152.33 491.33,155.44 492.04,158.55C492.35,159.92 492.80,161.40 493.04,161.84C493.53,162.77 494.28,168.48 495.09,177.54C495.40,180.98 495.83,184.59 496.05,185.57C496.27,186.55 496.64,190.69 496.86,194.78C497.08,198.87 497.44,203.16 497.66,204.32C497.88,205.47 498.23,208.85 498.44,211.81C498.66,214.78 498.99,217.95 499.18,218.86C499.37,219.77 499.65,222.88 499.79,225.78C500.16,233.21 502.13,239.46 504.71,241.36C505.60,242.02 505.88,242.50 505.78,243.26C505.72,243.82 505.49,244.29 505.27,244.31C505.06,244.33 499.17,244.25 492.19,244.14Z M788.28,244.21C787.51,243.95 787.91,242.42 789.00,241.43C789.64,240.86 790.60,239.18 791.25,237.51L792.38,234.59L792.38,158.99L792.38,83.40L791.27,81.54C790.59,80.40 789.80,79.59 789.21,79.45C787.29,78.96 787.30,76.56 789.23,76.56C789.74,76.56 791.79,76.14 793.80,75.61C795.82,75.09 799.22,74.31 801.37,73.88C803.52,73.45 805.95,72.81 806.77,72.47C807.59,72.12 808.60,71.95 809.01,72.08C809.75,72.31 809.77,73.67 809.81,150.51C809.83,193.52 809.83,229.06 809.80,229.49C809.69,231.15 810.94,238.03 811.47,238.63C811.77,238.97 812.13,239.64 812.27,240.10C812.41,240.57 812.96,241.23 813.49,241.58C814.51,242.24 814.79,243.65 813.96,243.95C813.40,244.16 788.86,244.40 788.28,244.21Z M122.71,243.50C122.21,243.14 122.18,242.87 122.55,242.07C122.80,241.53 123.34,240.98 123.75,240.85C124.21,240.70 124.94,239.58 125.63,237.98L126.76,235.35L126.76,160.35L126.76,85.35L125.83,83.20C125.32,82.02 124.30,80.47 123.56,79.75C122.73,78.94 122.27,78.14 122.34,77.65C122.46,76.89 122.73,76.87 135.71,76.93C143.00,76.96 149.11,77.08 149.29,77.19C149.86,77.55 149.63,78.09 148.30,79.59C147.57,80.40 146.56,81.93 146.05,83.01L145.12,84.96L145.01,163.36L144.90,241.76L145.75,242.21C146.37,242.54 150.13,242.62 159.53,242.48C170.33,242.32 173.20,242.16 176.97,241.48C179.45,241.03 182.00,240.46 182.64,240.21C183.27,239.96 184.67,239.53 185.74,239.26C188.37,238.58 193.41,236.41 196.41,234.64C197.76,233.85 198.96,233.20 199.07,233.20C199.36,233.20 202.42,231.11 205.86,228.56C209.16,226.12 215.25,220.12 217.64,216.95C220.14,213.64 220.91,214.20 220.32,218.87C220.12,220.44 219.76,222.24 219.52,222.87C219.28,223.51 218.91,225.69 218.70,227.73C218.50,229.78 218.15,232.02 217.92,232.72C217.70,233.42 217.28,235.44 216.99,237.21C216.44,240.58 215.82,243.30 215.52,243.60C215.42,243.69 194.64,243.81 169.33,243.86C135.37,243.92 123.16,243.83 122.71,243.50Z M419.00,181.44C418.49,180.10 418.76,177.11 419.53,175.68C419.96,174.88 420.31,173.74 420.31,173.15C420.32,172.55 420.51,171.38 420.74,170.53C421.11,169.20 421.23,169.09 421.57,169.70C422.05,170.56 421.68,173.67 420.96,174.78C420.67,175.22 420.31,176.90 420.17,178.51C419.90,181.47 419.44,182.61 419.00,181.44Z M309.06,171.15C309.77,170.75 311.76,170.12 313.48,169.75C315.20,169.39 317.57,168.75 318.76,168.34C321.20,167.50 323.67,167.12 332.62,166.19C339.87,165.44 346.56,165.59 351.63,166.61C353.49,166.99 355.29,167.19 355.63,167.06C356.11,166.88 356.25,166.23 356.25,164.22C356.25,160.75 354.82,150.88 354.11,149.41C353.80,148.77 353.12,147.10 352.61,145.70C352.09,144.31 351.21,142.46 350.65,141.60C348.86,138.87 345.62,135.52 343.97,134.69C343.10,134.25 342.12,133.68 341.80,133.41C340.87,132.65 335.98,131.64 333.20,131.64C330.08,131.64 325.34,132.55 323.24,133.56C322.38,133.97 320.98,134.59 320.12,134.94C319.26,135.29 317.42,136.50 316.03,137.63C310.76,141.88 307.04,147.55 305.46,153.75C304.09,159.10 304.63,170.47 306.31,171.53C307.09,172.03 307.63,171.95 309.06,171.15Z M239.66,121.50C239.43,121.13 240.23,119.53 240.65,119.53C241.18,119.53 246.75,113.62 248.34,111.37C252.69,105.20 254.61,101.81 255.29,99.09C255.62,97.77 255.24,97.76 252.48,99.07C250.55,99.98 249.96,100.08 247.06,99.92C244.40,99.78 243.53,99.57 242.29,98.75C237.70,95.71 235.95,92.60 235.94,87.50C235.94,84.64 236.09,83.85 237.06,81.84C238.99,77.83 242.63,75.06 246.45,74.72C249.55,74.44 252.21,75.15 254.48,76.88C258.97,80.28 260.19,83.98 259.43,91.79C259.04,95.79 257.78,100.27 256.64,101.76C256.48,101.97 256.22,102.57 256.06,103.08C255.74,104.12 253.81,107.17 251.22,110.74C249.47,113.15 240.87,121.88 240.24,121.88C240.05,121.88 239.79,121.71 239.66,121.50Z M0.00,0.39C0.00,0.13 166.93,0.00 500.00,0.00C833.07,0.00 1000.00,0.13 1000.00,0.39C1000.00,0.65 833.07,0.78 500.00,0.78C166.93,0.78 0.00,0.65 0.00,0.39Z"/>
  </g>
  <g id="simbolo" fill="#FF008E" fill-rule="evenodd">
    <path d="M871.78,433.70C869.99,433.56 869.85,433.45 867.90,430.84C866.79,429.35 865.75,428.12 865.59,428.12C865.44,428.12 864.95,427.55 864.50,426.86C863.29,424.95 862.25,423.55 858.40,418.55C856.46,416.05 853.04,411.58 850.78,408.62C847.59,404.44 841.25,396.26 838.19,392.38C835.78,389.32 833.76,386.66 831.84,383.99C830.55,382.20 828.86,380.02 828.09,379.14C827.32,378.26 825.65,376.15 824.38,374.44C823.11,372.74 821.54,370.69 820.90,369.88C820.25,369.07 818.58,366.89 817.19,365.02C815.79,363.16 813.77,360.53 812.70,359.17C811.62,357.82 808.98,354.39 806.84,351.56C804.69,348.73 800.60,343.43 797.75,339.79C794.90,336.15 792.35,332.83 792.09,332.41C791.22,331.02 790.00,331.47 788.07,333.89C786.03,336.42 778.67,345.97 777.15,348.05C776.60,348.80 775.41,350.36 774.50,351.52C773.59,352.67 772.59,353.99 772.27,354.45C771.95,354.90 769.98,357.47 767.89,360.16C763.52,365.76 763.48,365.81 761.14,368.95C759.01,371.80 758.26,372.76 756.50,374.91C755.74,375.83 755.01,376.93 754.88,377.35C754.75,377.78 754.48,378.12 754.28,378.12C753.98,378.12 750.55,382.44 747.47,386.72C745.77,389.06 744.29,390.97 737.42,399.61C735.80,401.65 734.05,403.95 733.53,404.73C733.00,405.50 731.14,407.96 729.38,410.20C727.63,412.43 724.25,416.81 721.88,419.92C719.51,423.04 716.86,426.46 715.99,427.54C715.12,428.61 713.90,430.20 713.27,431.05C712.63,431.91 711.93,432.84 711.71,433.11C711.44,433.42 710.17,433.59 708.04,433.59C704.95,433.59 704.74,433.54 704.11,432.57C703.27,431.30 703.42,430.99 707.12,426.30C708.62,424.41 711.63,420.51 713.81,417.65C715.99,414.80 718.83,411.08 720.12,409.40C721.41,407.72 723.69,404.72 725.20,402.75C726.70,400.77 728.72,398.16 729.69,396.94C731.61,394.52 732.52,393.35 739.95,383.66C742.70,380.08 746.22,375.50 747.77,373.48C749.32,371.46 751.29,368.88 752.15,367.73C753.01,366.59 755.03,363.97 756.64,361.91C758.25,359.85 760.01,357.57 760.55,356.84C761.08,356.11 762.49,354.26 763.67,352.74C768.50,346.52 772.17,341.72 773.91,339.38C774.92,338.02 776.28,336.39 776.93,335.76C777.59,335.13 778.12,334.48 778.12,334.30C778.12,334.13 779.62,332.02 781.45,329.62C783.73,326.62 784.77,324.93 784.77,324.20C784.77,323.04 783.76,321.49 779.30,315.79C775.42,310.85 774.66,309.84 773.07,307.58C772.33,306.52 771.52,305.49 771.26,305.27C771.01,305.06 770.05,303.83 769.12,302.54C768.20,301.25 766.70,299.32 765.80,298.24C764.90,297.17 761.19,292.33 757.56,287.50C753.93,282.67 750.58,278.27 750.11,277.73C749.64,277.20 748.59,275.85 747.78,274.74C746.96,273.63 744.48,270.44 742.28,267.64C740.07,264.85 737.70,261.78 737.01,260.82C736.31,259.85 734.95,258.05 733.98,256.82C733.02,255.58 731.79,253.99 731.25,253.28C730.71,252.57 729.29,250.71 728.08,249.14C726.88,247.57 725.68,245.89 725.42,245.39C725.16,244.90 724.51,244.33 723.97,244.12C722.59,243.60 722.99,242.92 725.02,242.29C725.98,242.00 727.72,241.47 728.91,241.11C730.09,240.75 731.23,240.34 731.45,240.19C731.66,240.04 733.24,239.18 734.96,238.27C738.54,236.37 740.30,235.03 743.44,231.79C748.36,226.72 751.05,221.66 753.83,212.30C755.53,206.59 756.26,195.46 755.32,189.60C754.97,187.43 754.69,184.85 754.69,183.88C754.69,182.91 754.36,181.00 753.96,179.63C753.56,178.27 752.93,176.01 752.55,174.61C751.05,168.97 750.08,166.47 747.03,160.35C744.03,154.32 744.24,154.68 740.91,150.14C735.76,143.13 727.62,136.59 721.26,134.34C715.09,132.16 709.08,131.30 705.08,132.03C703.90,132.24 701.96,132.53 700.78,132.66C698.74,132.88 698.68,132.86 699.48,132.27C699.95,131.92 701.62,131.38 703.19,131.06C704.77,130.74 707.02,130.20 708.20,129.85C711.37,128.94 723.46,129.34 726.65,130.46C727.88,130.90 729.36,131.25 729.94,131.25C731.50,131.25 736.53,132.79 738.28,133.80C739.72,134.63 741.92,134.50 744.50,133.41C745.75,132.88 748.25,132.07 750.05,131.61C751.85,131.15 753.63,130.60 754.02,130.40C754.40,130.20 756.33,129.60 758.31,129.06C760.29,128.52 762.79,127.75 763.87,127.35C764.94,126.94 767.71,126.08 770.01,125.44C772.32,124.79 774.54,124.07 774.97,123.85C775.39,123.62 776.45,123.44 777.33,123.44C778.63,123.44 778.99,123.60 779.25,124.32C779.72,125.59 780.13,133.31 779.76,133.89C779.43,134.40 765.44,135.44 754.10,135.80C747.84,135.99 746.88,136.14 746.88,136.87C746.88,137.43 748.96,139.22 751.91,141.21C754.08,142.67 761.74,150.83 763.53,153.58C764.28,154.73 765.34,156.63 765.88,157.81C766.43,158.99 767.29,160.84 767.79,161.91C768.83,164.12 770.10,168.75 770.47,171.68C770.60,172.75 770.97,174.34 771.28,175.20C772.07,177.39 772.09,188.01 771.31,190.32C771.00,191.24 770.56,193.40 770.34,195.12C770.12,196.84 769.68,198.95 769.36,199.80C769.04,200.66 768.78,201.77 768.77,202.27C768.76,202.76 768.42,203.82 768.02,204.61C767.61,205.40 767.01,206.67 766.68,207.42C764.79,211.73 763.14,214.92 761.73,216.99C760.86,218.28 759.54,220.21 758.82,221.29C757.07,223.87 752.58,228.45 748.34,231.97C746.46,233.53 744.92,235.05 744.92,235.36C744.92,235.67 746.02,237.28 747.37,238.95C748.72,240.63 750.25,242.61 750.77,243.36C751.30,244.11 752.70,246.00 753.89,247.55C755.08,249.11 757.55,252.34 759.38,254.74C761.20,257.14 763.58,260.18 764.65,261.49C765.73,262.80 766.91,264.31 767.29,264.84C769.19,267.60 774.96,275.19 777.93,278.83C779.00,280.15 780.71,282.33 781.72,283.68C785.92,289.30 789.62,294.06 798.08,304.77C799.24,306.23 799.90,305.65 805.98,297.88C807.31,296.18 809.01,293.96 809.77,292.94C813.51,287.87 816.77,283.66 817.12,283.44C817.34,283.31 818.26,282.10 819.17,280.76C820.09,279.42 821.55,277.42 822.43,276.31C823.31,275.21 824.64,273.49 825.39,272.49C826.14,271.49 827.64,269.55 828.71,268.18C835.59,259.44 844.86,247.38 849.47,241.21C850.43,239.92 851.56,238.43 851.98,237.89C852.40,237.35 853.50,235.95 854.42,234.77C856.44,232.18 857.81,229.97 857.81,229.30C857.81,228.80 854.75,225.02 852.41,222.66C851.67,221.90 850.78,220.85 850.43,220.32C850.09,219.78 847.96,217.03 845.70,214.21C840.20,207.32 839.20,206.00 837.76,203.72C835.00,199.36 831.98,194.16 830.44,191.10C829.54,189.33 828.65,187.78 828.46,187.66C828.28,187.55 828.12,187.07 828.12,186.60C828.12,186.13 827.41,184.17 826.56,182.25C825.70,180.32 825.00,178.39 824.99,177.95C824.99,177.51 824.64,175.50 824.21,173.48C823.13,168.33 823.15,160.91 824.26,156.10C824.72,154.14 825.24,152.28 825.44,151.95C825.63,151.63 825.98,150.93 826.22,150.39C826.79,149.08 826.87,148.95 829.04,145.69C831.55,141.90 834.60,138.76 838.87,135.56C842.43,132.88 850.42,128.13 851.35,128.13C851.63,128.12 852.62,127.79 853.56,127.37C854.50,126.96 856.92,126.24 858.94,125.77C861.99,125.05 863.43,124.94 867.53,125.08C872.14,125.23 872.70,125.34 876.17,126.73C880.30,128.39 883.78,130.95 887.33,134.93C888.96,136.76 889.57,137.21 890.00,136.91C893.57,134.42 897.95,131.28 898.77,130.62C899.34,130.17 901.04,129.33 902.54,128.76C904.04,128.18 905.57,127.54 905.93,127.34C906.29,127.14 908.38,126.52 910.57,125.95C914.07,125.05 915.15,124.94 919.52,125.06C922.37,125.14 924.72,125.38 925.04,125.63C925.34,125.87 926.30,126.17 927.18,126.31C929.60,126.68 934.88,129.61 937.83,132.23C940.56,134.65 943.16,137.66 943.61,138.92C943.75,139.32 944.16,140.00 944.52,140.43C945.28,141.32 946.88,145.43 946.88,146.47C946.88,146.85 947.23,148.26 947.66,149.61C948.72,152.93 948.71,158.86 947.65,162.86C947.22,164.46 946.88,166.31 946.88,166.97C946.88,167.63 946.33,169.66 945.67,171.49C945.00,173.31 944.23,175.51 943.95,176.37C943.20,178.64 940.25,184.65 938.78,186.91C938.07,187.97 937.50,188.98 937.50,189.14C937.50,189.30 936.84,190.44 936.02,191.69C935.21,192.93 934.38,194.23 934.17,194.58C933.33,195.97 929.63,201.00 926.76,204.65C919.54,213.82 916.11,217.98 912.73,221.70C910.56,224.08 908.26,226.66 907.62,227.43C903.87,231.94 891.93,243.83 889.39,245.58C883.05,249.95 879.55,251.02 877.30,249.28C876.79,248.88 876.18,248.48 875.96,248.40C875.74,248.31 873.23,245.77 870.40,242.74C867.56,239.72 864.80,237.01 864.26,236.72C863.33,236.22 863.20,236.28 861.87,237.83C860.65,239.26 859.02,241.39 856.06,245.41C855.63,246.00 853.34,249.05 850.98,252.18C847.10,257.31 845.25,259.68 840.80,265.23C840.02,266.20 837.99,268.84 836.29,271.09C834.58,273.35 831.74,277.04 829.97,279.30C828.20,281.55 825.67,284.89 824.34,286.72C823.02,288.54 821.21,290.92 820.34,291.99C813.62,300.25 804.69,312.17 804.69,312.86C804.69,313.20 805.38,314.36 806.22,315.43C807.06,316.50 808.24,318.09 808.85,318.95C809.45,319.80 810.92,321.74 812.12,323.24C813.32,324.75 814.72,326.59 815.23,327.34C815.74,328.10 816.76,329.41 817.49,330.27C819.16,332.24 823.51,337.89 829.37,345.70C831.87,349.03 834.81,352.90 835.91,354.30C837.01,355.69 839.44,358.82 841.32,361.25C843.19,363.67 845.65,366.84 846.77,368.28C847.89,369.72 849.64,372.04 850.66,373.44C851.68,374.83 853.39,377.05 854.48,378.36C856.46,380.77 857.76,382.45 860.87,386.61C861.79,387.85 864.61,391.50 867.13,394.73C871.73,400.61 877.44,408.07 878.52,409.62C878.84,410.07 880.77,412.59 882.81,415.21C886.98,420.56 888.31,422.31 889.56,424.06C890.04,424.73 891.62,426.75 893.08,428.56C896.41,432.68 896.42,433.30 893.16,433.65C890.70,433.91 874.96,433.95 871.78,433.70Z M704.88,245.33C698.98,244.88 691.29,243.25 687.30,241.60C682.84,239.76 675.96,236.07 673.83,234.37C666.70,228.69 661.95,222.80 658.21,215.01C657.33,213.18 656.45,210.85 656.26,209.84C656.07,208.83 655.65,207.39 655.34,206.64C654.42,204.45 653.43,195.34 653.61,190.89C653.83,185.61 654.65,179.34 655.27,178.12C655.55,177.59 655.90,176.18 656.05,175.00C656.20,173.82 657.01,171.23 657.85,169.24C658.69,167.26 659.38,165.40 659.38,165.12C659.38,164.84 659.81,164.01 660.35,163.28C660.89,162.55 661.33,161.80 661.33,161.61C661.33,161.42 662.15,160.01 663.15,158.47C664.15,156.93 665.20,155.24 665.47,154.73C666.97,151.88 676.70,142.61 680.88,140.04C684.62,137.74 685.82,137.13 686.60,137.12C687.07,137.11 687.71,136.75 688.01,136.31C688.65,135.41 691.16,134.83 691.57,135.50C691.73,135.76 691.23,136.21 690.35,136.62C686.68,138.31 678.80,146.21 676.48,150.52C675.39,152.55 673.73,156.28 673.13,158.01C672.91,158.65 672.55,159.71 672.33,160.35C670.60,165.34 670.51,166.28 670.51,178.12C670.51,187.77 670.63,190.25 671.23,193.36C672.89,201.82 676.49,211.69 680.34,218.28C681.38,220.07 682.40,221.83 682.62,222.20C684.06,224.70 687.15,228.44 690.32,231.50C694.10,235.15 695.33,236.07 700.52,239.11C704.03,241.17 710.75,243.00 717.17,243.65L720.09,243.95L719.01,244.65C717.72,245.49 711.10,245.81 704.88,245.33Z"/>
  <clipPath id="clip-cuore"><rect x="808" y="112" width="150" height="150"/></clipPath><g id="cuore" clip-path="url(#clip-cuore)"><path d="M871.78,433.70C869.99,433.56 869.85,433.45 867.90,430.84C866.79,429.35 865.75,428.12 865.59,428.12C865.44,428.12 864.95,427.55 864.50,426.86C863.29,424.95 862.25,423.55 858.40,418.55C856.46,416.05 853.04,411.58 850.78,408.62C847.59,404.44 841.25,396.26 838.19,392.38C835.78,389.32 833.76,386.66 831.84,383.99C830.55,382.20 828.86,380.02 828.09,379.14C827.32,378.26 825.65,376.15 824.38,374.44C823.11,372.74 821.54,370.69 820.90,369.88C820.25,369.07 818.58,366.89 817.19,365.02C815.79,363.16 813.77,360.53 812.70,359.17C811.62,357.82 808.98,354.39 806.84,351.56C804.69,348.73 800.60,343.43 797.75,339.79C794.90,336.15 792.35,332.83 792.09,332.41C791.22,331.02 790.00,331.47 788.07,333.89C786.03,336.42 778.67,345.97 777.15,348.05C776.60,348.80 775.41,350.36 774.50,351.52C773.59,352.67 772.59,353.99 772.27,354.45C771.95,354.90 769.98,357.47 767.89,360.16C763.52,365.76 763.48,365.81 761.14,368.95C759.01,371.80 758.26,372.76 756.50,374.91C755.74,375.83 755.01,376.93 754.88,377.35C754.75,377.78 754.48,378.12 754.28,378.12C753.98,378.12 750.55,382.44 747.47,386.72C745.77,389.06 744.29,390.97 737.42,399.61C735.80,401.65 734.05,403.95 733.53,404.73C733.00,405.50 731.14,407.96 729.38,410.20C727.63,412.43 724.25,416.81 721.88,419.92C719.51,423.04 716.86,426.46 715.99,427.54C715.12,428.61 713.90,430.20 713.27,431.05C712.63,431.91 711.93,432.84 711.71,433.11C711.44,433.42 710.17,433.59 708.04,433.59C704.95,433.59 704.74,433.54 704.11,432.57C703.27,431.30 703.42,430.99 707.12,426.30C708.62,424.41 711.63,420.51 713.81,417.65C715.99,414.80 718.83,411.08 720.12,409.40C721.41,407.72 723.69,404.72 725.20,402.75C726.70,400.77 728.72,398.16 729.69,396.94C731.61,394.52 732.52,393.35 739.95,383.66C742.70,380.08 746.22,375.50 747.77,373.48C749.32,371.46 751.29,368.88 752.15,367.73C753.01,366.59 755.03,363.97 756.64,361.91C758.25,359.85 760.01,357.57 760.55,356.84C761.08,356.11 762.49,354.26 763.67,352.74C768.50,346.52 772.17,341.72 773.91,339.38C774.92,338.02 776.28,336.39 776.93,335.76C777.59,335.13 778.12,334.48 778.12,334.30C778.12,334.13 779.62,332.02 781.45,329.62C783.73,326.62 784.77,324.93 784.77,324.20C784.77,323.04 783.76,321.49 779.30,315.79C775.42,310.85 774.66,309.84 773.07,307.58C772.33,306.52 771.52,305.49 771.26,305.27C771.01,305.06 770.05,303.83 769.12,302.54C768.20,301.25 766.70,299.32 765.80,298.24C764.90,297.17 761.19,292.33 757.56,287.50C753.93,282.67 750.58,278.27 750.11,277.73C749.64,277.20 748.59,275.85 747.78,274.74C746.96,273.63 744.48,270.44 742.28,267.64C740.07,264.85 737.70,261.78 737.01,260.82C736.31,259.85 734.95,258.05 733.98,256.82C733.02,255.58 731.79,253.99 731.25,253.28C730.71,252.57 729.29,250.71 728.08,249.14C726.88,247.57 725.68,245.89 725.42,245.39C725.16,244.90 724.51,244.33 723.97,244.12C722.59,243.60 722.99,242.92 725.02,242.29C725.98,242.00 727.72,241.47 728.91,241.11C730.09,240.75 731.23,240.34 731.45,240.19C731.66,240.04 733.24,239.18 734.96,238.27C738.54,236.37 740.30,235.03 743.44,231.79C748.36,226.72 751.05,221.66 753.83,212.30C755.53,206.59 756.26,195.46 755.32,189.60C754.97,187.43 754.69,184.85 754.69,183.88C754.69,182.91 754.36,181.00 753.96,179.63C753.56,178.27 752.93,176.01 752.55,174.61C751.05,168.97 750.08,166.47 747.03,160.35C744.03,154.32 744.24,154.68 740.91,150.14C735.76,143.13 727.62,136.59 721.26,134.34C715.09,132.16 709.08,131.30 705.08,132.03C703.90,132.24 701.96,132.53 700.78,132.66C698.74,132.88 698.68,132.86 699.48,132.27C699.95,131.92 701.62,131.38 703.19,131.06C704.77,130.74 707.02,130.20 708.20,129.85C711.37,128.94 723.46,129.34 726.65,130.46C727.88,130.90 729.36,131.25 729.94,131.25C731.50,131.25 736.53,132.79 738.28,133.80C739.72,134.63 741.92,134.50 744.50,133.41C745.75,132.88 748.25,132.07 750.05,131.61C751.85,131.15 753.63,130.60 754.02,130.40C754.40,130.20 756.33,129.60 758.31,129.06C760.29,128.52 762.79,127.75 763.87,127.35C764.94,126.94 767.71,126.08 770.01,125.44C772.32,124.79 774.54,124.07 774.97,123.85C775.39,123.62 776.45,123.44 777.33,123.44C778.63,123.44 778.99,123.60 779.25,124.32C779.72,125.59 780.13,133.31 779.76,133.89C779.43,134.40 765.44,135.44 754.10,135.80C747.84,135.99 746.88,136.14 746.88,136.87C746.88,137.43 748.96,139.22 751.91,141.21C754.08,142.67 761.74,150.83 763.53,153.58C764.28,154.73 765.34,156.63 765.88,157.81C766.43,158.99 767.29,160.84 767.79,161.91C768.83,164.12 770.10,168.75 770.47,171.68C770.60,172.75 770.97,174.34 771.28,175.20C772.07,177.39 772.09,188.01 771.31,190.32C771.00,191.24 770.56,193.40 770.34,195.12C770.12,196.84 769.68,198.95 769.36,199.80C769.04,200.66 768.78,201.77 768.77,202.27C768.76,202.76 768.42,203.82 768.02,204.61C767.61,205.40 767.01,206.67 766.68,207.42C764.79,211.73 763.14,214.92 761.73,216.99C760.86,218.28 759.54,220.21 758.82,221.29C757.07,223.87 752.58,228.45 748.34,231.97C746.46,233.53 744.92,235.05 744.92,235.36C744.92,235.67 746.02,237.28 747.37,238.95C748.72,240.63 750.25,242.61 750.77,243.36C751.30,244.11 752.70,246.00 753.89,247.55C755.08,249.11 757.55,252.34 759.38,254.74C761.20,257.14 763.58,260.18 764.65,261.49C765.73,262.80 766.91,264.31 767.29,264.84C769.19,267.60 774.96,275.19 777.93,278.83C779.00,280.15 780.71,282.33 781.72,283.68C785.92,289.30 789.62,294.06 798.08,304.77C799.24,306.23 799.90,305.65 805.98,297.88C807.31,296.18 809.01,293.96 809.77,292.94C813.51,287.87 816.77,283.66 817.12,283.44C817.34,283.31 818.26,282.10 819.17,280.76C820.09,279.42 821.55,277.42 822.43,276.31C823.31,275.21 824.64,273.49 825.39,272.49C826.14,271.49 827.64,269.55 828.71,268.18C835.59,259.44 844.86,247.38 849.47,241.21C850.43,239.92 851.56,238.43 851.98,237.89C852.40,237.35 853.50,235.95 854.42,234.77C856.44,232.18 857.81,229.97 857.81,229.30C857.81,228.80 854.75,225.02 852.41,222.66C851.67,221.90 850.78,220.85 850.43,220.32C850.09,219.78 847.96,217.03 845.70,214.21C840.20,207.32 839.20,206.00 837.76,203.72C835.00,199.36 831.98,194.16 830.44,191.10C829.54,189.33 828.65,187.78 828.46,187.66C828.28,187.55 828.12,187.07 828.12,186.60C828.12,186.13 827.41,184.17 826.56,182.25C825.70,180.32 825.00,178.39 824.99,177.95C824.99,177.51 824.64,175.50 824.21,173.48C823.13,168.33 823.15,160.91 824.26,156.10C824.72,154.14 825.24,152.28 825.44,151.95C825.63,151.63 825.98,150.93 826.22,150.39C826.79,149.08 826.87,148.95 829.04,145.69C831.55,141.90 834.60,138.76 838.87,135.56C842.43,132.88 850.42,128.13 851.35,128.13C851.63,128.12 852.62,127.79 853.56,127.37C854.50,126.96 856.92,126.24 858.94,125.77C861.99,125.05 863.43,124.94 867.53,125.08C872.14,125.23 872.70,125.34 876.17,126.73C880.30,128.39 883.78,130.95 887.33,134.93C888.96,136.76 889.57,137.21 890.00,136.91C893.57,134.42 897.95,131.28 898.77,130.62C899.34,130.17 901.04,129.33 902.54,128.76C904.04,128.18 905.57,127.54 905.93,127.34C906.29,127.14 908.38,126.52 910.57,125.95C914.07,125.05 915.15,124.94 919.52,125.06C922.37,125.14 924.72,125.38 925.04,125.63C925.34,125.87 926.30,126.17 927.18,126.31C929.60,126.68 934.88,129.61 937.83,132.23C940.56,134.65 943.16,137.66 943.61,138.92C943.75,139.32 944.16,140.00 944.52,140.43C945.28,141.32 946.88,145.43 946.88,146.47C946.88,146.85 947.23,148.26 947.66,149.61C948.72,152.93 948.71,158.86 947.65,162.86C947.22,164.46 946.88,166.31 946.88,166.97C946.88,167.63 946.33,169.66 945.67,171.49C945.00,173.31 944.23,175.51 943.95,176.37C943.20,178.64 940.25,184.65 938.78,186.91C938.07,187.97 937.50,188.98 937.50,189.14C937.50,189.30 936.84,190.44 936.02,191.69C935.21,192.93 934.38,194.23 934.17,194.58C933.33,195.97 929.63,201.00 926.76,204.65C919.54,213.82 916.11,217.98 912.73,221.70C910.56,224.08 908.26,226.66 907.62,227.43C903.87,231.94 891.93,243.83 889.39,245.58C883.05,249.95 879.55,251.02 877.30,249.28C876.79,248.88 876.18,248.48 875.96,248.40C875.74,248.31 873.23,245.77 870.40,242.74C867.56,239.72 864.80,237.01 864.26,236.72C863.33,236.22 863.20,236.28 861.87,237.83C860.65,239.26 859.02,241.39 856.06,245.41C855.63,246.00 853.34,249.05 850.98,252.18C847.10,257.31 845.25,259.68 840.80,265.23C840.02,266.20 837.99,268.84 836.29,271.09C834.58,273.35 831.74,277.04 829.97,279.30C828.20,281.55 825.67,284.89 824.34,286.72C823.02,288.54 821.21,290.92 820.34,291.99C813.62,300.25 804.69,312.17 804.69,312.86C804.69,313.20 805.38,314.36 806.22,315.43C807.06,316.50 808.24,318.09 808.85,318.95C809.45,319.80 810.92,321.74 812.12,323.24C813.32,324.75 814.72,326.59 815.23,327.34C815.74,328.10 816.76,329.41 817.49,330.27C819.16,332.24 823.51,337.89 829.37,345.70C831.87,349.03 834.81,352.90 835.91,354.30C837.01,355.69 839.44,358.82 841.32,361.25C843.19,363.67 845.65,366.84 846.77,368.28C847.89,369.72 849.64,372.04 850.66,373.44C851.68,374.83 853.39,377.05 854.48,378.36C856.46,380.77 857.76,382.45 860.87,386.61C861.79,387.85 864.61,391.50 867.13,394.73C871.73,400.61 877.44,408.07 878.52,409.62C878.84,410.07 880.77,412.59 882.81,415.21C886.98,420.56 888.31,422.31 889.56,424.06C890.04,424.73 891.62,426.75 893.08,428.56C896.41,432.68 896.42,433.30 893.16,433.65C890.70,433.91 874.96,433.95 871.78,433.70Z M704.88,245.33C698.98,244.88 691.29,243.25 687.30,241.60C682.84,239.76 675.96,236.07 673.83,234.37C666.70,228.69 661.95,222.80 658.21,215.01C657.33,213.18 656.45,210.85 656.26,209.84C656.07,208.83 655.65,207.39 655.34,206.64C654.42,204.45 653.43,195.34 653.61,190.89C653.83,185.61 654.65,179.34 655.27,178.12C655.55,177.59 655.90,176.18 656.05,175.00C656.20,173.82 657.01,171.23 657.85,169.24C658.69,167.26 659.38,165.40 659.38,165.12C659.38,164.84 659.81,164.01 660.35,163.28C660.89,162.55 661.33,161.80 661.33,161.61C661.33,161.42 662.15,160.01 663.15,158.47C664.15,156.93 665.20,155.24 665.47,154.73C666.97,151.88 676.70,142.61 680.88,140.04C684.62,137.74 685.82,137.13 686.60,137.12C687.07,137.11 687.71,136.75 688.01,136.31C688.65,135.41 691.16,134.83 691.57,135.50C691.73,135.76 691.23,136.21 690.35,136.62C686.68,138.31 678.80,146.21 676.48,150.52C675.39,152.55 673.73,156.28 673.13,158.01C672.91,158.65 672.55,159.71 672.33,160.35C670.60,165.34 670.51,166.28 670.51,178.12C670.51,187.77 670.63,190.25 671.23,193.36C672.89,201.82 676.49,211.69 680.34,218.28C681.38,220.07 682.40,221.83 682.62,222.20C684.06,224.70 687.15,228.44 690.32,231.50C694.10,235.15 695.33,236.07 700.52,239.11C704.03,241.17 710.75,243.00 717.17,243.65L720.09,243.95L719.01,244.65C717.72,245.49 711.10,245.81 704.88,245.33Z"/></g></g>
</svg>