<svg xmlns="http://www.w3.org/2000/svg" viewBox="0 0 100 105.30" role="img" aria-label="L'angolo di Nadia">
  <path fill="currentColor" fill-rule="evenodd" d="M74.01,105.20C73.40,105.15 73.35,105.12 72.69,104.23C72.31,103.73 71.96,103.31 71.91,103.31C71.86,103.31 71.69,103.12 71.54,102.88C71.13,102.23 70.78,101.76 69.47,100.07C68.81,99.22 67.65,97.70 66.89,96.70C65.81,95.28 63.66,92.51 62.62,91.19C61.80,90.15 61.12,89.25 60.46,88.35C60.03,87.74 59.46,87.00 59.19,86.70C58.93,86.40 58.37,85.69 57.94,85.11C57.51,84.53 56.97,83.84 56.75,83.56C56.54,83.29 55.97,82.55 55.50,81.91C55.02,81.28 54.34,80.39 53.97,79.93C53.61,79.47 52.72,78.31 51.99,77.35C51.26,76.39 49.87,74.59 48.91,73.36C47.94,72.13 47.08,71.00 46.99,70.86C46.69,70.39 46.28,70.54 45.62,71.36C44.93,72.22 42.44,75.45 41.92,76.16C41.74,76.41 41.33,76.94 41.02,77.34C40.72,77.73 40.38,78.17 40.27,78.33C40.16,78.48 39.49,79.35 38.78,80.26C37.30,82.17 37.29,82.18 36.49,83.25C35.77,84.21 35.52,84.54 34.92,85.27C34.66,85.58 34.42,85.95 34.37,86.10C34.32,86.24 34.23,86.36 34.17,86.36C34.06,86.36 32.90,87.82 31.86,89.27C31.28,90.07 30.78,90.71 28.45,93.64C27.90,94.33 27.31,95.12 27.13,95.38C26.95,95.64 26.32,96.47 25.72,97.23C25.13,97.99 23.99,99.47 23.18,100.53C22.38,101.59 21.48,102.75 21.18,103.11C20.89,103.48 20.47,104.01 20.26,104.30C20.05,104.60 19.81,104.91 19.73,105.00C19.64,105.11 19.21,105.17 18.49,105.17C17.44,105.17 17.37,105.15 17.15,104.82C16.87,104.39 16.92,104.28 18.18,102.69C18.68,102.05 19.70,100.73 20.44,99.76C21.18,98.79 22.15,97.53 22.58,96.96C23.02,96.39 23.79,95.38 24.30,94.71C24.81,94.04 25.50,93.15 25.83,92.74C26.48,91.92 26.79,91.52 29.31,88.23C30.24,87.02 31.43,85.47 31.96,84.78C32.48,84.10 33.15,83.22 33.44,82.83C33.74,82.45 34.42,81.56 34.97,80.86C35.51,80.16 36.11,79.39 36.29,79.14C36.47,78.89 36.95,78.27 37.35,77.75C38.99,75.64 40.23,74.01 40.82,73.22C41.16,72.76 41.63,72.21 41.85,71.99C42.07,71.78 42.25,71.56 42.25,71.50C42.25,71.44 42.76,70.72 43.38,69.91C44.15,68.89 44.50,68.32 44.50,68.07C44.50,67.68 44.16,67.15 42.65,65.22C41.34,63.55 41.08,63.21 40.54,62.44C40.29,62.08 40.01,61.73 39.93,61.66C39.84,61.58 39.51,61.17 39.20,60.73C38.89,60.29 38.38,59.64 38.07,59.27C37.77,58.91 36.51,57.27 35.28,55.63C34.05,53.99 32.91,52.50 32.75,52.32C32.59,52.14 32.24,51.68 31.96,51.30C31.68,50.93 30.85,49.84 30.10,48.90C29.35,47.95 28.54,46.91 28.31,46.58C28.07,46.25 27.61,45.64 27.28,45.22C26.96,44.81 26.54,44.27 26.36,44.03C26.18,43.79 25.69,43.16 25.28,42.62C24.87,42.09 24.47,41.52 24.38,41.35C24.29,41.18 24.07,40.99 23.89,40.92C23.42,40.74 23.56,40.51 24.25,40.30C24.57,40.20 25.16,40.02 25.56,39.90C25.96,39.78 26.35,39.64 26.42,39.59C26.50,39.54 27.03,39.24 27.62,38.94C28.83,38.29 29.43,37.84 30.49,36.74C32.16,35.02 33.07,33.31 34.02,30.13C34.59,28.19 34.84,24.42 34.52,22.43C34.40,21.70 34.30,20.82 34.30,20.49C34.30,20.17 34.19,19.52 34.06,19.05C33.92,18.59 33.71,17.82 33.58,17.35C33.07,15.44 32.74,14.59 31.71,12.52C30.69,10.47 30.76,10.59 29.63,9.05C27.89,6.68 25.13,4.46 22.97,3.70C20.88,2.96 18.84,2.67 17.48,2.91C17.08,2.99 16.43,3.08 16.03,3.13C15.33,3.20 15.31,3.20 15.59,2.99C15.74,2.88 16.31,2.69 16.84,2.58C17.38,2.48 18.14,2.29 18.54,2.18C19.62,1.87 23.72,2.00 24.80,2.38C25.22,2.53 25.72,2.65 25.91,2.65C26.44,2.65 28.15,3.17 28.74,3.51C29.23,3.80 29.98,3.75 30.85,3.38C31.27,3.20 32.12,2.93 32.73,2.77C33.34,2.61 33.95,2.43 34.08,2.36C34.21,2.29 34.86,2.09 35.53,1.91C36.21,1.72 37.05,1.46 37.42,1.33C37.78,1.19 38.72,0.90 39.50,0.68C40.28,0.46 41.04,0.22 41.18,0.14C41.32,0.06 41.68,0.00 41.98,0.00C42.42,0.00 42.54,0.06 42.63,0.30C42.79,0.73 42.93,3.35 42.81,3.54C42.69,3.72 37.95,4.07 34.11,4.19C31.98,4.26 31.66,4.31 31.66,4.56C31.66,4.74 32.36,5.35 33.36,6.03C34.10,6.52 36.70,9.29 37.30,10.22C37.56,10.61 37.92,11.25 38.10,11.66C38.29,12.06 38.58,12.68 38.75,13.05C39.10,13.79 39.53,15.37 39.66,16.36C39.70,16.72 39.83,17.26 39.93,17.55C40.20,18.29 40.21,21.89 39.94,22.68C39.84,22.99 39.69,23.72 39.61,24.30C39.54,24.89 39.39,25.60 39.28,25.89C39.17,26.19 39.08,26.56 39.08,26.73C39.08,26.90 38.96,27.25 38.82,27.52C38.69,27.79 38.48,28.22 38.37,28.48C37.73,29.94 37.17,31.02 36.69,31.72C36.40,32.16 35.95,32.81 35.71,33.18C35.11,34.05 33.59,35.61 32.15,36.80C31.51,37.33 30.99,37.85 30.99,37.95C30.99,38.05 31.37,38.60 31.82,39.17C32.28,39.74 32.80,40.41 32.98,40.66C33.16,40.92 33.63,41.56 34.03,42.08C34.44,42.61 35.27,43.71 35.89,44.52C36.51,45.34 37.32,46.37 37.68,46.81C38.05,47.25 38.45,47.76 38.58,47.95C39.22,48.88 41.18,51.45 42.19,52.69C42.55,53.14 43.13,53.88 43.47,54.33C44.90,56.24 46.15,57.85 49.02,61.49C49.41,61.98 49.63,61.78 51.70,59.15C52.15,58.57 52.73,57.82 52.98,57.47C54.25,55.75 55.36,54.33 55.47,54.25C55.55,54.21 55.86,53.80 56.17,53.34C56.48,52.89 56.98,52.21 57.27,51.84C57.57,51.46 58.02,50.88 58.28,50.54C58.53,50.20 59.04,49.54 59.40,49.08C61.73,46.11 64.88,42.03 66.44,39.93C66.77,39.50 67.15,38.99 67.29,38.81C67.44,38.63 67.81,38.15 68.12,37.75C68.81,36.87 69.27,36.12 69.27,35.90C69.27,35.72 68.23,34.44 67.44,33.64C67.19,33.39 66.89,33.03 66.77,32.85C66.65,32.67 65.93,31.74 65.17,30.78C63.30,28.44 62.96,27.99 62.47,27.22C61.54,25.74 60.51,23.98 59.99,22.94C59.68,22.34 59.38,21.82 59.32,21.78C59.26,21.74 59.20,21.58 59.20,21.42C59.20,21.26 58.96,20.59 58.67,19.94C58.38,19.29 58.14,18.63 58.14,18.48C58.14,18.33 58.02,17.65 57.88,16.97C57.51,15.22 57.52,12.70 57.90,11.07C58.05,10.41 58.23,9.78 58.29,9.67C58.36,9.56 58.48,9.32 58.56,9.14C58.75,8.69 58.78,8.65 59.51,7.54C60.37,6.26 61.40,5.20 62.85,4.11C64.06,3.20 66.76,1.59 67.08,1.59C67.17,1.59 67.51,1.47 67.83,1.33C68.15,1.19 68.97,0.95 69.65,0.79C70.69,0.55 71.18,0.51 72.57,0.56C74.13,0.61 74.32,0.65 75.50,1.12C76.90,1.68 78.08,2.55 79.28,3.90C79.83,4.52 80.04,4.67 80.19,4.57C81.40,3.72 82.88,2.66 83.16,2.44C83.35,2.28 83.93,2.00 84.44,1.80C84.95,1.61 85.46,1.39 85.59,1.32C85.71,1.26 86.42,1.04 87.16,0.85C88.35,0.55 88.71,0.51 90.19,0.55C91.16,0.58 91.96,0.66 92.07,0.74C92.17,0.82 92.49,0.93 92.79,0.97C93.61,1.10 95.40,2.09 96.40,2.98C97.33,3.80 98.21,4.82 98.36,5.25C98.41,5.39 98.55,5.62 98.67,5.76C98.93,6.07 99.47,7.46 99.47,7.81C99.47,7.94 99.59,8.42 99.74,8.87C100.09,10.00 100.09,12.01 99.73,13.37C99.59,13.91 99.47,14.54 99.47,14.76C99.47,14.98 99.29,15.67 99.06,16.29C98.84,16.91 98.57,17.66 98.48,17.95C98.23,18.72 97.22,20.76 96.72,21.52C96.49,21.88 96.29,22.22 96.29,22.28C96.29,22.33 96.07,22.72 95.79,23.14C95.52,23.56 95.23,24.00 95.16,24.12C94.88,24.59 93.62,26.30 92.65,27.54C90.20,30.65 89.04,32.06 87.89,33.32C87.16,34.13 86.38,35.00 86.16,35.26C84.89,36.79 80.84,40.82 79.98,41.41C77.83,42.90 76.64,43.26 75.88,42.67C75.71,42.53 75.50,42.40 75.42,42.37C75.35,42.34 74.50,41.48 73.54,40.45C72.58,39.43 71.64,38.51 71.46,38.41C71.14,38.24 71.10,38.26 70.65,38.79C70.23,39.27 69.68,39.99 68.68,41.36C68.53,41.56 67.75,42.59 66.95,43.65C65.64,45.39 65.01,46.20 63.50,48.08C63.24,48.41 62.55,49.30 61.97,50.07C61.39,50.83 60.43,52.08 59.83,52.85C59.23,53.61 58.37,54.75 57.92,55.36C57.47,55.98 56.86,56.79 56.57,57.15C54.29,59.95 51.26,63.99 51.26,64.23C51.26,64.34 51.49,64.74 51.78,65.10C52.06,65.46 52.46,66.00 52.67,66.29C52.87,66.58 53.37,67.24 53.78,67.75C54.19,68.26 54.66,68.88 54.83,69.14C55.01,69.39 55.35,69.84 55.60,70.13C56.16,70.80 57.64,72.72 59.63,75.36C60.47,76.49 61.47,77.80 61.85,78.28C62.22,78.75 63.04,79.81 63.68,80.63C64.31,81.46 65.15,82.53 65.53,83.02C65.91,83.51 66.50,84.29 66.85,84.77C67.19,85.24 67.77,85.99 68.14,86.44C68.81,87.25 69.25,87.82 70.31,89.23C70.62,89.66 71.58,90.89 72.43,91.99C73.99,93.98 75.93,96.51 76.29,97.04C76.40,97.19 77.06,98.04 77.75,98.93C79.16,100.75 79.61,101.34 80.04,101.93C80.20,102.16 80.74,102.85 81.23,103.46C82.36,104.85 82.36,105.07 81.26,105.18C80.42,105.27 75.08,105.29 74.01,105.20Z M17.42,41.33C15.42,41.18 12.81,40.62 11.46,40.07C9.94,39.44 7.61,38.19 6.89,37.61C4.47,35.69 2.86,33.69 1.59,31.05C1.29,30.43 1.00,29.64 0.93,29.30C0.87,28.96 0.72,28.47 0.62,28.21C0.31,27.47 -0.03,24.38 0.03,22.87C0.11,21.08 0.38,18.95 0.59,18.54C0.69,18.36 0.81,17.88 0.86,17.48C0.91,17.08 1.18,16.20 1.47,15.53C1.75,14.86 1.99,14.23 1.99,14.13C1.99,14.04 2.14,13.76 2.32,13.51C2.50,13.26 2.65,13.01 2.65,12.94C2.65,12.88 2.93,12.40 3.27,11.88C3.61,11.35 3.96,10.78 4.05,10.61C4.56,9.64 7.86,6.50 9.28,5.63C10.55,4.85 10.95,4.64 11.22,4.64C11.38,4.64 11.59,4.51 11.70,4.37C11.91,4.06 12.76,3.86 12.90,4.09C12.96,4.18 12.79,4.33 12.49,4.47C11.24,5.04 8.57,7.72 7.79,9.18C7.42,9.87 6.85,11.13 6.65,11.72C6.58,11.94 6.45,12.30 6.38,12.52C5.79,14.21 5.76,14.53 5.76,18.54C5.76,21.81 5.80,22.66 6.01,23.71C6.57,26.58 7.79,29.92 9.09,32.16C9.45,32.76 9.79,33.36 9.87,33.49C10.36,34.34 11.41,35.60 12.48,36.64C13.76,37.88 14.18,38.19 15.94,39.22C17.13,39.92 19.41,40.54 21.58,40.76L22.57,40.86L22.21,41.10C21.77,41.39 19.53,41.49 17.42,41.33Z"/>
</svg>